<?xml version="1.0" standalone="no"?>
<!DOCTYPE svg PUBLIC "-//W3C//DTD SVG 20010904//EN"
 "http://www.w3.org/TR/2001/REC-SVG-20010904/DTD/svg10.dtd">
<svg version="1.0" xmlns="http://www.w3.org/2000/svg"
 width="64.000000pt" height="64.000000pt" viewBox="0 0 64.000000 64.000000"
 preserveAspectRatio="xMidYMid meet">

<g transform="translate(0.000000,64.000000) scale(0.100000,-0.100000)"
fill="#000000" stroke="none">
<path d="M290 561 c-20 -38 -13 -41 98 -43 l107 -2 -105 -5 c-84 -5 -105 -9
-105 -21 0 -12 17 -16 75 -20 70 -5 75 -7 84 -31 13 -39 2 -59 -34 -59 l-30 0
0 -80 c0 -71 -2 -81 -21 -91 -16 -8 -28 -8 -46 0 -33 15 -33 15 -33 -24 l0
-35 145 0 145 0 0 179 c0 134 -3 181 -12 184 -10 4 -10 6 0 6 15 1 16 33 0 49
-8 8 -53 12 -135 12 -111 0 -123 -2 -133 -19z"/>
<path d="M256 444 c-11 -10 -16 -34 -16 -75 0 -51 3 -59 19 -59 24 0 37 -17
46 -57 5 -26 12 -33 30 -33 31 0 35 15 35 136 l0 104 -49 0 c-32 0 -55 -6 -65
-16z m67 -31 c-13 -2 -33 -2 -45 0 -13 2 -3 4 22 4 25 0 35 -2 23 -4z m17 -33
c0 -5 -15 -10 -34 -10 -19 0 -38 5 -41 10 -4 6 10 10 34 10 23 0 41 -4 41 -10z
m-35 -30 c4 -6 -5 -10 -19 -10 -14 0 -26 5 -26 10 0 6 9 10 19 10 11 0 23 -4
26 -10z"/>
<path d="M387 454 c-4 -4 -7 -18 -7 -31 0 -18 5 -23 26 -23 22 0 25 4 22 27
-3 27 -26 41 -41 27z"/>
<path d="M112 278 c-7 -7 -12 -31 -12 -55 l0 -43 50 0 c39 0 50 -3 50 -16 0
-9 6 -14 13 -12 7 3 13 29 15 71 l3 67 -54 0 c-29 0 -58 -5 -65 -12z m43 -36
c2 -28 -10 -46 -24 -38 -12 8 -15 49 -4 60 12 12 26 1 28 -22z m51 0 c2 -27
-11 -46 -25 -38 -12 8 -15 49 -4 60 12 12 28 0 29 -22z"/>
<path d="M247 284 c-4 -4 -7 -16 -7 -26 0 -13 7 -18 26 -18 21 0 25 4 22 22
-3 23 -27 35 -41 22z"/>
<path d="M75 160 c3 -5 31 -10 61 -10 34 0 53 4 49 10 -3 6 -31 10 -61 10 -34
0 -53 -4 -49 -10z"/>
<path d="M280 111 c0 -43 24 -51 149 -51 124 0 141 6 141 47 0 23 0 23 -145
23 -137 0 -145 -1 -145 -19z m168 -14 c4 -20 -25 -34 -40 -19 -15 15 -1 44 19
40 10 -2 19 -11 21 -21z"/>
<path d="M420 100 c0 -5 5 -10 11 -10 5 0 7 5 4 10 -3 6 -8 10 -11 10 -2 0 -4
-4 -4 -10z"/>
</g>
</svg>
